<svg xmlns="http://www.w3.org/2000/svg" viewBox="0 0 64 64" aria-hidden="true">
  <path fill="#ffffff" d="M29.7 8C16.1 8 5 18.2 5 30.8c0 5.4 2 10.5 5.6 14.5-.8 3.4-2.8 6.5-5.6 8.7 4.8.5 9.6-.8 13.4-3.5 3.5 1.7 7.5 2.7 11.8 2.7H36c12.7 0 23-9.5 23-21.2S48.7 10.8 36 10.8c-2.2 0-4.3.3-6.3.9z"/>
  <path fill="#111111" d="M31.1 3.5c-16 0-29 12.1-29 27 0 6 2.1 11.8 6 16.4-.8 4-3 7.6-6.3 10.3-.7.5-.9 1.5-.6 2.2.3.8 1.1 1.3 1.9 1.4 5.7.5 11.3-.7 16-3.4 3.8 1.5 7.8 2.2 12 2.2h6.3c14.8 0 26.8-11 26.8-24.6S52.2 10.4 37.4 10.4c-2.1 0-4.3.2-6.3.6zM37.4 14.5c12.5 0 22.7 9.2 22.7 20.5S49.9 55.5 37.4 55.5h-6.3c-4 0-7.8-.8-11.2-2.4-.7-.3-1.5-.3-2.1.2-2.7 1.9-5.9 3.1-9.2 3.4 1.9-2.3 3.3-5 3.9-7.9.2-.7 0-1.5-.5-2-3.7-4-5.8-9.1-5.8-14.4 0-12.6 11.1-22.9 24.9-22.9 2 0 4.1.2 6.1.7.4.1.8.1 1.2 0 0 0-.6-.7-.9-1.5-.4-.8-.4-1.8-.1-2.6z"/>
  <circle cx="24" cy="30.5" r="3.6" fill="#111111"/>
  <circle cx="40.9" cy="30.5" r="3.6" fill="#111111"/>
  <path fill="#111111" d="M47.3 42.8c-2.6 4.9-7.2 7.5-13.4 7.5s-10.8-2.6-13.4-7.5c-.5-1-.2-2.2.8-2.8 1-.5 2.2-.2 2.8.8 1.9 3.6 5 5.3 9.8 5.3s7.9-1.7 9.8-5.3c.5-1 1.8-1.3 2.8-.8 1 .6 1.3 1.8.8 2.8z"/>
  <circle cx="22.7" cy="58.2" r="4.2" fill="#111111"/>
  <circle cx="43.7" cy="58.2" r="4.2" fill="#111111"/>
</svg>
